<svg width="42" height="43" viewBox="0 0 42 43" fill="none" xmlns="http://www.w3.org/2000/svg">
<path d="M12.7187 0.520874C5.71715 0.520874 0.020752 6.21727 0.020752 13.2188V29.7813C0.020752 36.7828 5.71715 42.4792 12.7187 42.4792H29.2812C36.2827 42.4792 41.9791 36.7828 41.9791 29.7813V13.2188C41.9791 6.21727 36.2827 0.520874 29.2812 0.520874H12.7187ZM32.0416 8.25004C33.2617 8.25004 34.2499 9.23827 34.2499 10.4584C34.2499 11.6774 33.2617 12.6667 32.0416 12.6667C30.8215 12.6667 29.8333 11.6774 29.8333 10.4584C29.8333 9.23827 30.8215 8.25004 32.0416 8.25004ZM20.9999 10.4584C27.0883 10.4584 32.0416 15.4117 32.0416 21.5C32.0416 27.5884 27.0883 32.5417 20.9999 32.5417C14.9115 32.5417 9.95825 27.5884 9.95825 21.5C9.95825 15.4117 14.9115 10.4584 20.9999 10.4584ZM20.9999 13.7709C19.9849 13.7709 18.9798 13.9708 18.0421 14.3592C17.1043 14.7476 16.2523 15.317 15.5346 16.0347C14.8169 16.7524 14.2475 17.6045 13.8591 18.5422C13.4707 19.48 13.2708 20.485 13.2708 21.5C13.2708 22.5151 13.4707 23.5201 13.8591 24.4579C14.2475 25.3956 14.8169 26.2477 15.5346 26.9654C16.2523 27.6831 17.1043 28.2524 18.0421 28.6409C18.9798 29.0293 19.9849 29.2292 20.9999 29.2292C22.0149 29.2292 23.02 29.0293 23.9577 28.6409C24.8955 28.2524 25.7475 27.6831 26.4653 26.9654C27.183 26.2477 27.7523 25.3956 28.1407 24.4579C28.5292 23.5201 28.7291 22.5151 28.7291 21.5C28.7291 20.485 28.5292 19.48 28.1407 18.5422C27.7523 17.6045 27.183 16.7524 26.4653 16.0347C25.7475 15.317 24.8955 14.7476 23.9577 14.3592C23.02 13.9708 22.0149 13.7709 20.9999 13.7709Z" fill="#DF8480"/>
</svg>
