<svg width="42" height="36" viewBox="0 0 42 36" fill="none" xmlns="http://www.w3.org/2000/svg">
<path d="M42 4.70561C40.4277 5.41947 38.8486 5.95837 37.0986 6.14034C38.8486 5.06254 40.25 3.27087 40.9473 1.29724C39.1973 2.37504 37.4473 3.08891 35.5264 3.45284C33.7764 1.66117 31.5 0.583374 29.0527 0.583374C24.3223 0.583374 20.4736 4.52364 20.4736 9.35974C20.4736 10.0806 20.4736 10.7945 20.6514 11.3334C13.4736 10.9764 7.17774 7.56807 2.97363 2.19308C2.09863 3.45284 1.75 5.06254 1.75 6.67224C1.75 9.72367 3.32227 12.4112 5.59863 14.0209C4.19727 13.8389 2.80274 13.482 1.75 12.9431C1.75 12.9431 1.75 12.9431 1.75 13.125C1.75 17.4222 4.72363 21.0056 8.57227 21.7264C7.875 21.9014 7.17774 22.0834 6.30274 22.0834C5.77637 22.0834 5.25 22.0834 4.72363 21.9014C5.77637 25.4847 8.92773 27.9973 12.7764 27.9973C9.80273 30.3278 6.125 31.7556 2.09863 31.7556C1.40137 31.7556 0.697267 31.7556 0 31.5806C3.84863 34.0861 8.40137 35.5209 13.125 35.5209C29.0527 35.5209 37.625 22.0834 37.625 10.4375C37.625 10.0806 37.625 9.72367 37.625 9.35974C39.375 8.10697 40.7764 6.49727 42 4.70561Z" fill="#DF8480"/>
</svg>
